<svg id="图层_1" data-name="图层 1" xmlns="http://www.w3.org/2000/svg" viewBox="0 0 283.46 84.75"><defs><style>.cls-1{fill:#194e9e;}</style></defs><title>Truora</title><polygon class="cls-1" points="19.13 13.89 17.4 23.68 34.52 23.68 26.2 70.86 39.36 70.86 47.68 23.68 64.92 23.68 66.65 13.89 19.13 13.89"/><path class="cls-1" d="M172.81,50.51c-.93,5.27-2.35,11.68-10.22,11.68-7.59,0-7.1-6.41-6.17-11.68.88-5,2.68-11.61,10.28-11.61,7.88,0,7,6.61,6.11,11.61m9.12-15Q178.06,30,168.55,30c-6.15,0-12,1.64-16,5.3s-5.84,9-7.15,15.47q-1.87,9.38,2.2,14.71t12.81,5.35c6.09,0,11.84-1.4,16-4.89s6.22-8.79,7.5-15.17.67-11.61-1.92-15.27"/><path class="cls-1" d="M116.67,70.83l19.78,0L143.57,30H130.85l-5.23,30.68h-7.46A2.93,2.93,0,0,1,115,57.15L119.76,30H107l-4.28,25c-2,8.47,3.8,16.37,13.94,15.81"/><path class="cls-1" d="M250.32,62.6h-5.64c-3.53,0-5.1-1.21-5.1-3.6s2.58-3.59,6.47-4.52c2.32-.55,4.87-1.25,5.95-1.47-1,5.71-1.68,9.59-1.68,9.59m2-32.55a59.67,59.67,0,0,0-19.17,3.33l-2,11.13a41.54,41.54,0,0,1,17.69-5.07c3.25,0,4.66,1.4,4.17,3.41s-3.37,3-8.85,3.63c-11,1.57-17,5.8-18.07,13-.49,6.47,6.1,11.38,11.57,11.41s11.2,0,11.2,0H261.5l1.1-6.47,3.13-18c1.92-10.53-4.81-16.34-13.4-16.34"/><path class="cls-1" d="M100.81,30.34c-12.16-1.29-20.13,2.28-22.93,3.82.33-1.94.29-2.08.66-4.17H66.88L59.69,70.86H71.37c.49-2.79,1.06-6,1.64-9.32,0-.09,1.19-6.15,1.63-7.34,1.7-4.17,7.65-14.67,24.25-13Z"/><path class="cls-1" d="M227.54,30.34c-12.16-1.29-20.13,2.28-22.93,3.82.34-1.94.29-2.08.66-4.17H193.61l-7.19,40.87H198.1c.49-2.79,1.06-6,1.64-9.32,0-.09,1.19-6.15,1.63-7.34,1.7-4.17,7.65-14.67,24.25-13Z"/></svg>